<svg xmlns="http://www.w3.org/2000/svg" viewBox="0 -40 400 460" width="400" height="460">
<title>S10 이서연 — 깨달음 3단</title>
<path d="M 349.8 177.9 L 619.4 192" stroke="#ffb627" stroke-width="12" opacity=".85"/>
<path d="M 346.2 203.7 L 609.2 264.5" stroke="#ffb627" stroke-width="7" opacity=".85"/>
<path d="M 338.1 228.6 L 586.6 334.1" stroke="#ffb627" stroke-width="12" opacity=".85"/>
<path d="M 325.8 251.7 L 552.2 398.7" stroke="#ffb627" stroke-width="7" opacity=".85"/>
<path d="M 309.7 272.3 L 507.2 456.4" stroke="#ffb627" stroke-width="12" opacity=".85"/>
<path d="M 290.3 289.8 L 452.8 505.4" stroke="#ffb627" stroke-width="7" opacity=".85"/>
<path d="M 268.1 303.7 L 390.7 544.2" stroke="#ffb627" stroke-width="12" opacity=".85"/>
<path d="M 243.9 313.4 L 322.8 571.6" stroke="#ffb627" stroke-width="7" opacity=".85"/>
<path d="M 218.3 318.9 L 251.2 586.9" stroke="#ffb627" stroke-width="12" opacity=".85"/>
<path d="M 192.1 319.8 L 178 589.4" stroke="#ffb627" stroke-width="7" opacity=".85"/>
<path d="M 166.3 316.2 L 105.5 579.2" stroke="#ffb627" stroke-width="12" opacity=".85"/>
<path d="M 141.4 308.1 L 35.9 556.6" stroke="#ffb627" stroke-width="7" opacity=".85"/>
<path d="M 118.3 295.8 L -28.7 522.2" stroke="#ffb627" stroke-width="12" opacity=".85"/>
<path d="M 97.7 279.7 L -86.4 477.2" stroke="#ffb627" stroke-width="7" opacity=".85"/>
<path d="M 80.2 260.3 L -135.4 422.8" stroke="#ffb627" stroke-width="12" opacity=".85"/>
<path d="M 66.3 238.1 L -174.2 360.7" stroke="#ffb627" stroke-width="7" opacity=".85"/>
<path d="M 56.6 213.9 L -201.6 292.8" stroke="#ffb627" stroke-width="12" opacity=".85"/>
<path d="M 51.1 188.3 L -216.9 221.2" stroke="#ffb627" stroke-width="7" opacity=".85"/>
<path d="M 50.2 162.1 L -219.4 148" stroke="#ffb627" stroke-width="12" opacity=".85"/>
<path d="M 53.8 136.3 L -209.2 75.5" stroke="#ffb627" stroke-width="7" opacity=".85"/>
<path d="M 61.9 111.4 L -186.6 5.9" stroke="#ffb627" stroke-width="12" opacity=".85"/>
<path d="M 74.2 88.3 L -152.2 -58.7" stroke="#ffb627" stroke-width="7" opacity=".85"/>
<path d="M 90.3 67.7 L -107.2 -116.4" stroke="#ffb627" stroke-width="12" opacity=".85"/>
<path d="M 109.7 50.2 L -52.8 -165.4" stroke="#ffb627" stroke-width="7" opacity=".85"/>
<path d="M 131.9 36.3 L 9.3 -204.2" stroke="#ffb627" stroke-width="12" opacity=".85"/>
<path d="M 156.1 26.6 L 77.2 -231.6" stroke="#ffb627" stroke-width="7" opacity=".85"/>
<path d="M 181.7 21.1 L 148.8 -246.9" stroke="#ffb627" stroke-width="12" opacity=".85"/>
<path d="M 207.9 20.2 L 222 -249.4" stroke="#ffb627" stroke-width="7" opacity=".85"/>
<path d="M 233.7 23.8 L 294.5 -239.2" stroke="#ffb627" stroke-width="12" opacity=".85"/>
<path d="M 258.6 31.9 L 364.1 -216.6" stroke="#ffb627" stroke-width="7" opacity=".85"/>
<path d="M 281.7 44.2 L 428.7 -182.2" stroke="#ffb627" stroke-width="12" opacity=".85"/>
<path d="M 302.3 60.3 L 486.4 -137.2" stroke="#ffb627" stroke-width="7" opacity=".85"/>
<path d="M 319.8 79.7 L 535.4 -82.8" stroke="#ffb627" stroke-width="12" opacity=".85"/>
<path d="M 333.7 101.9 L 574.2 -20.7" stroke="#ffb627" stroke-width="7" opacity=".85"/>
<path d="M 343.4 126.1 L 601.6 47.2" stroke="#ffb627" stroke-width="12" opacity=".85"/>
<path d="M 348.9 151.7 L 616.9 118.8" stroke="#ffb627" stroke-width="7" opacity=".85"/>
<polygon points="445,185 386.1,211.8 435.1,254 385.6,269.7 406.1,317.5 342.1,308.1 360.4,370.2 310.3,356.6 301.8,407.9 253,365.4 234.9,427.5 200,389 165.1,427.5 147,365.4 98.2,407.9 89.7,356.6 39.6,370.2 57.9,308.1 -6.1,317.5 14.4,269.7 -35.1,254 13.9,211.8 -45,185 -1.9,156 -35.1,116 29,106.9 -6.1,52.5 45.8,51.4 39.6,-0.2 98.4,26.8 98.2,-37.9 142.5,-10.7 165.1,-57.5 200,-3 234.9,-57.5 257.5,-10.7 301.8,-37.9 301.6,26.8 360.4,-0.2 354.2,51.4 406.1,52.5 371,106.9 435.1,116 401.9,156" fill="#ffe066" stroke="#f08c00" stroke-width="6" stroke-linejoin="round"/>
<polygon points="200,10 223.4,67.3 267,23.3 266.7,85.2 323.7,61.3 299.8,118.3 361.7,118 317.7,161.6 375,185 317.7,208.4 361.7,252 299.8,251.7 323.7,308.7 266.7,284.8 267,346.7 223.4,302.7 200,360 176.6,302.7 133,346.7 133.3,284.8 76.3,308.7 100.2,251.7 38.3,252 82.3,208.4 25,185 82.3,161.6 38.3,118 100.2,118.3 76.3,61.3 133.3,85.2 133,23.3 176.6,67.3" fill="#fff4bf" stroke="none" stroke-width="0" stroke-linejoin="round"/>
<path d="M 116 178 C 108 96 150 60 200 60 C 250 60 292 96 284 178 C 286 205 282 222 274 232 L 126 232 C 118 222 114 205 116 178 Z" fill="#2d2220" stroke="#2b2b2b" stroke-width="5"/>
<path d="M 50 430 C 52 350 110 312 175 302 L 225 302 C 290 312 348 350 350 430 Z" fill="#eadfc8" stroke="#2b2b2b" stroke-width="5"/>
<path d="M 50 430 C 52 350 110 312 166 304 L 180 336 L 174 430 Z" fill="#4f8a5f" stroke="#2b2b2b" stroke-width="5" stroke-linejoin="round"/>
<path d="M 350 430 C 348 350 290 312 234 304 L 220 336 L 226 430 Z" fill="#4f8a5f" stroke="#2b2b2b" stroke-width="5" stroke-linejoin="round"/>
<circle cx="185" cy="362" r="4.5" fill="#3c6e4b" stroke="#2b2b2b" stroke-width="2"/>
<circle cx="185" cy="398" r="4.5" fill="#3c6e4b" stroke="#2b2b2b" stroke-width="2"/>
<path d="M 178 228 L 178 312 Q 200 322 222 312 L 222 228 Z" fill="#f7d5ba" stroke="#2b2b2b" stroke-width="5"/>
<path d="M 179 262 Q 200 276 221 262" fill="none" stroke="#e9b996" stroke-width="6"/>
<path d="M 178 298 L 164 324 Q 180 330 196 318 Z" fill="#eadfc8" stroke="#2b2b2b" stroke-width="4" stroke-linejoin="round"/>
<path d="M 222 298 L 236 324 Q 220 330 204 318 Z" fill="#eadfc8" stroke="#2b2b2b" stroke-width="4" stroke-linejoin="round"/>
<ellipse cx="125" cy="176" rx="13" ry="19" fill="#f7d5ba" stroke="#2b2b2b" stroke-width="5"/>
<path d="M 129 168 q -5 8 0 16" fill="none" stroke="#e9b996" stroke-width="3"/>
<ellipse cx="275" cy="176" rx="13" ry="19" fill="#f7d5ba" stroke="#2b2b2b" stroke-width="5"/>
<path d="M 271 168 q 5 8 0 16" fill="none" stroke="#e9b996" stroke-width="3"/>
<path d="M 125 160 C 125 100 160 78 200 78 C 240 78 275 100 275 160 C 275 215 245 252 200 252 C 155 252 125 215 125 160 Z" fill="#f7d5ba" stroke="#2b2b2b" stroke-width="5"/>
<path d="M 201 186 Q 196 197 203 199" fill="none" stroke="#e9b996" stroke-width="4" stroke-linecap="round"/>
<circle cx="170" cy="172" r="12" fill="#fff" stroke="#2b2b2b" stroke-width="3.5"/>
<polygon points="170,163 172.4,169.3 179,169.6 173.8,173.7 175.6,180.2 170,176.5 164.4,180.2 166.2,173.7 161,169.6 167.6,169.3" fill="#ffcc1f" stroke="#2b2b2b" stroke-width="2" stroke-linejoin="round"/>
<circle cx="230" cy="172" r="12" fill="#fff" stroke="#2b2b2b" stroke-width="3.5"/>
<polygon points="230,163 232.4,169.3 239,169.6 233.8,173.7 235.6,180.2 230,176.5 224.4,180.2 226.2,173.7 221,169.6 227.6,169.3" fill="#ffcc1f" stroke="#2b2b2b" stroke-width="2" stroke-linejoin="round"/>
<rect x="145" y="157" width="50" height="31" rx="5" fill="#ffffff" fill-opacity=".15" stroke="#98a1ab" stroke-width="3.5"/>
<rect x="205" y="157" width="50" height="31" rx="5" fill="#ffffff" fill-opacity=".15" stroke="#98a1ab" stroke-width="3.5"/>
<path d="M 195 168 L 205 168" stroke="#98a1ab" stroke-width="3.5"/>
<path d="M 145 165 L 128 162 M 255 165 L 272 162" stroke="#98a1ab" stroke-width="3.5" stroke-linecap="round"/>
<path d="M 152 133 Q 170.0 127.0 188 129" fill="none" stroke="#2d2220" stroke-width="5" stroke-linecap="round"/>
<path d="M 248 133 Q 230.0 127.0 212 129" fill="none" stroke="#2d2220" stroke-width="5" stroke-linecap="round"/>
<path d="M 180.2 210 Q 200 206 219.8 210 Q 218.0 245.0 200 245.0 Q 182.0 245.0 180.2 210 Z" fill="#8a3b3b" stroke="#2b2b2b" stroke-width="5" stroke-linejoin="round"/>
<ellipse cx="200" cy="236.9" rx="9.9" ry="5.4" fill="#e47d7d"/>
<path d="M 183.8 212 Q 200 209 216.2 212 L 214.4 218 Q 200 220 185.6 218 Z" fill="#fff"/>
<path d="M 122 176 C 114 104 152 70 200 70 C 250 70 286 104 278 176 C 272 142 262 118 246 104 C 222 128 176 134 142 128 C 132 142 125 158 122 176 Z" fill="#2d2220" stroke="#2b2b2b" stroke-width="5" stroke-linejoin="round"/>
<path d="M 246 104 C 236 92 226 84 214 80" fill="none" stroke="#4d3c38" stroke-width="3"/>
<path d="M 134 226 C 112 256 104 300 114 348 C 120 362 140 360 144 344 C 140 302 148 268 158 242 Z" fill="#2d2220" stroke="#2b2b2b" stroke-width="5" stroke-linejoin="round"/>
<ellipse cx="144" cy="238" rx="12" ry="8" transform="rotate(-30 144 238)" fill="#3c6e4b" stroke="#2b2b2b" stroke-width="3"/>
<path d="M 76 440 L 40 300 L 62 176" fill="none" stroke="#2b2b2b" stroke-width="50" stroke-linecap="round" stroke-linejoin="round"/>
<path d="M 76 440 L 40 300 L 62 176" fill="none" stroke="#4f8a5f" stroke-width="40" stroke-linecap="round" stroke-linejoin="round"/>
<path d="M 59.6 189.8 L 61.7 178" stroke="#2b2b2b" stroke-width="48" stroke-linecap="butt"/>
<path d="M 59.9 187.8 L 61.3 179.9" stroke="#3c6e4b" stroke-width="38" stroke-linecap="butt"/>
<g transform="translate(62 166) rotate(-85)">
<rect x="-2" y="-17" width="36" height="34" rx="13" fill="#f7d5ba" stroke="#2b2b2b" stroke-width="4.5" stroke-linejoin="round"/>
<path d="M 22 -8 L 33 -8 M 22 2 L 33 2" stroke="#2b2b2b" stroke-width="3" stroke-linecap="round"/>
</g>
<path d="M 324 440 L 360 300 L 338 176" fill="none" stroke="#2b2b2b" stroke-width="50" stroke-linecap="round" stroke-linejoin="round"/>
<path d="M 324 440 L 360 300 L 338 176" fill="none" stroke="#4f8a5f" stroke-width="40" stroke-linecap="round" stroke-linejoin="round"/>
<path d="M 340.4 189.8 L 338.3 178" stroke="#2b2b2b" stroke-width="48" stroke-linecap="butt"/>
<path d="M 340.1 187.8 L 338.7 179.9" stroke="#3c6e4b" stroke-width="38" stroke-linecap="butt"/>
<g transform="translate(338 166) rotate(-95)">
<rect x="-2" y="-17" width="36" height="34" rx="13" fill="#f7d5ba" stroke="#2b2b2b" stroke-width="4.5" stroke-linejoin="round"/>
<path d="M 22 -8 L 33 -8 M 22 2 L 33 2" stroke="#2b2b2b" stroke-width="3" stroke-linecap="round"/>
</g>
<text x="200" y="34" font-family="'Noto Sans KR','Noto Sans CJK KR','Apple SD Gothic Neo',sans-serif" font-size="72" font-weight="900" fill="#d9480f" stroke="#fff" stroke-width="10" paint-order="stroke" stroke-linejoin="round" text-anchor="middle" transform="rotate(-4 200 34)">번쩍!!!</text>
<path d="M 62 134 Q 64.88 147.12 78 150 Q 64.88 152.88 62 166 Q 59.12 152.88 46 150 Q 59.12 147.12 62 134 Z" fill="#ffffff" stroke="#2b2b2b" stroke-width="3" stroke-linejoin="round"/>
<path d="M 340 92 Q 343.24 106.76 358 110 Q 343.24 113.24 340 128 Q 336.76 113.24 322 110 Q 336.76 106.76 340 92 Z" fill="#ffffff" stroke="#2b2b2b" stroke-width="3" stroke-linejoin="round"/>
</svg>
