<svg xmlns="http://www.w3.org/2000/svg" viewBox="0 0 860 680" width="860" height="680"><rect width="860" height="680" fill="#fff"/>
<defs><marker id="ak" viewBox="0 0 10 10" refX="9" refY="5" markerWidth="7" markerHeight="7" orient="auto"><path d="M0,0 L10,5 L0,10 z" fill="#111"/></marker><marker id="an" viewBox="0 0 10 10" refX="9" refY="5" markerWidth="7" markerHeight="7" orient="auto"><path d="M0,0 L10,5 L0,10 z" fill="#6d4c41"/></marker><marker id="af" viewBox="0 0 10 10" refX="9" refY="5" markerWidth="7" markerHeight="7" orient="auto"><path d="M0,0 L10,5 L0,10 z" fill="#e8710a"/></marker><marker id="ag" viewBox="0 0 10 10" refX="9" refY="5" markerWidth="7" markerHeight="7" orient="auto"><path d="M0,0 L10,5 L0,10 z" fill="#0e9aa7"/></marker></defs>
<g font-family="'Noto Sans KR','Noto Sans CJK KR',sans-serif" fill="#111">
<path d="M311.8,244.0 L548.2,99.3 L507.0,520.7 Z" fill="#f4f6f8" stroke="#111" stroke-width="3"/>
<path d="M295.8,254.0 L311.8,228.0 L327.8,254.0 Z" fill="#8d6e63"/>
<text x="287.8" y="254.0" font-size="24" text-anchor="end" fill="#111" font-weight="700">호에하겐</text>
<path d="M532.2,109.3 L548.2,83.3 L564.2,109.3 Z" fill="#8d6e63"/>
<text x="548.2" y="73.3" font-size="24" text-anchor="middle" fill="#111" font-weight="700">브로켄</text>
<path d="M491.0,530.7 L507.0,504.7 L523.0,530.7 Z" fill="#8d6e63"/>
<text x="507.0" y="566.7" font-size="24" text-anchor="middle" fill="#111" font-weight="700">인젤스베르크</text>
<text x="400.0" y="155.6" font-size="24" text-anchor="middle" fill="#111">약 69 km</text>
<text x="599.6" y="318.0" font-size="24" text-anchor="middle" fill="#111">약 107 km</text>
<text x="347.4" y="412.3" font-size="24" text-anchor="middle" fill="#111">약 85 km</text>
<text x="430.0" y="656.0" font-size="24" text-anchor="middle" fill="#007a52" font-weight="700">세 내각의 합 = 180° + 14.85초</text>
<text x="70.0" y="50.0" font-size="22" text-anchor="middle" fill="#111">북</text>
<path d="M70.0,110.0 L70.0,62.0" fill="none" stroke="#111" stroke-width="2" marker-end="url(#ak)"/>
</g></svg>
