<svg xmlns="http://www.w3.org/2000/svg" viewBox="0 0 860 580" font-family="'Noto Sans KR','Noto Sans CJK KR',sans-serif">
<rect width="860" height="580" fill="#ffffff"/>
<line x1="100.0" y1="460.0" x2="820.0" y2="460.0" stroke="#e6e8ec" stroke-width="2"/>
<text x="90.0" y="467.0" font-size="20" font-weight="400" fill="#5d6675" text-anchor="end">0</text>
<line x1="100.0" y1="362.4" x2="820.0" y2="362.4" stroke="#e6e8ec" stroke-width="2"/>
<text x="90.0" y="369.4" font-size="20" font-weight="400" fill="#5d6675" text-anchor="end">0.1</text>
<line x1="100.0" y1="264.8" x2="820.0" y2="264.8" stroke="#e6e8ec" stroke-width="2"/>
<text x="90.0" y="271.8" font-size="20" font-weight="400" fill="#5d6675" text-anchor="end">0.2</text>
<line x1="100.0" y1="167.1" x2="820.0" y2="167.1" stroke="#e6e8ec" stroke-width="2"/>
<text x="90.0" y="174.1" font-size="20" font-weight="400" fill="#5d6675" text-anchor="end">0.3</text>
<line x1="100.0" y1="69.5" x2="820.0" y2="69.5" stroke="#e6e8ec" stroke-width="2"/>
<text x="90.0" y="76.5" font-size="20" font-weight="400" fill="#5d6675" text-anchor="end">0.4</text>
<line x1="100.0" y1="460.0" x2="820.0" y2="460.0" stroke="#5d6675" stroke-width="2"/>
<line x1="100.0" y1="460.0" x2="100.0" y2="50.0" stroke="#5d6675" stroke-width="2"/>
<text x="100.0" y="488.0" font-size="20" font-weight="400" fill="#5d6675" text-anchor="middle">−12</text>
<text x="220.0" y="488.0" font-size="20" font-weight="400" fill="#5d6675" text-anchor="middle">−8</text>
<text x="340.0" y="488.0" font-size="20" font-weight="400" fill="#5d6675" text-anchor="middle">−4</text>
<text x="460.0" y="488.0" font-size="20" font-weight="400" fill="#5d6675" text-anchor="middle">0</text>
<text x="580.0" y="488.0" font-size="20" font-weight="400" fill="#5d6675" text-anchor="middle">4</text>
<text x="700.0" y="488.0" font-size="20" font-weight="400" fill="#5d6675" text-anchor="middle">8</text>
<text x="820.0" y="488.0" font-size="20" font-weight="400" fill="#5d6675" text-anchor="middle">12</text>
<polyline points="100.0,460.0 101.5,460.0 103.0,460.0 104.5,460.0 106.0,460.0 107.5,460.0 109.0,460.0 110.5,460.0 112.0,460.0 113.5,460.0 115.0,460.0 116.5,460.0 118.0,460.0 119.5,460.0 121.0,460.0 122.5,460.0 124.0,460.0 125.5,460.0 127.0,460.0 128.5,460.0 130.0,460.0 131.5,460.0 133.0,460.0 134.5,460.0 136.0,460.0 137.5,460.0 139.0,460.0 140.5,460.0 142.0,460.0 143.5,460.0 145.0,460.0 146.5,460.0 148.0,460.0 149.5,460.0 151.0,460.0 152.5,460.0 154.0,460.0 155.5,460.0 157.0,460.0 158.5,460.0 160.0,460.0 161.5,460.0 163.0,460.0 164.5,460.0 166.0,460.0 167.5,460.0 169.0,460.0 170.5,460.0 172.0,460.0 173.5,460.0 175.0,460.0 176.5,460.0 178.0,460.0 179.5,460.0 181.0,460.0 182.5,460.0 184.0,460.0 185.5,460.0 187.0,460.0 188.5,460.0 190.0,460.0 191.5,460.0 193.0,460.0 194.5,460.0 196.0,460.0 197.5,460.0 199.0,460.0 200.5,460.0 202.0,460.0 203.5,460.0 205.0,460.0 206.5,460.0 208.0,460.0 209.5,460.0 211.0,460.0 212.5,460.0 214.0,460.0 215.5,460.0 217.0,460.0 218.5,460.0 220.0,460.0 221.5,460.0 223.0,460.0 224.5,460.0 226.0,460.0 227.5,460.0 229.0,460.0 230.5,460.0 232.0,460.0 233.5,460.0 235.0,460.0 236.5,460.0 238.0,460.0 239.5,460.0 241.0,460.0 242.5,460.0 244.0,460.0 245.5,460.0 247.0,460.0 248.5,460.0 250.0,460.0 251.5,460.0 253.0,460.0 254.5,460.0 256.0,460.0 257.5,460.0 259.0,460.0 260.5,460.0 262.0,460.0 263.5,460.0 265.0,460.0 266.5,460.0 268.0,460.0 269.5,460.0 271.0,460.0 272.5,460.0 274.0,460.0 275.5,460.0 277.0,460.0 278.5,460.0 280.0,460.0 281.5,460.0 283.0,460.0 284.5,460.0 286.0,460.0 287.5,460.0 289.0,460.0 290.5,460.0 292.0,460.0 293.5,460.0 295.0,460.0 296.5,460.0 298.0,460.0 299.5,460.0 301.0,460.0 302.5,460.0 304.0,460.0 305.5,460.0 307.0,460.0 308.5,460.0 310.0,460.0 311.5,460.0 313.0,460.0 314.5,460.0 316.0,460.0 317.5,460.0 319.0,460.0 320.5,460.0 322.0,460.0 323.5,460.0 325.0,460.0 326.5,460.0 328.0,460.0 329.5,460.0 331.0,460.0 332.5,460.0 334.0,459.9 335.5,459.9 337.0,459.9 338.5,459.9 340.0,459.9 341.5,459.8 343.0,459.8 344.5,459.8 346.0,459.7 347.5,459.7 349.0,459.6 350.5,459.5 352.0,459.4 353.5,459.3 355.0,459.1 356.5,459.0 358.0,458.8 359.5,458.6 361.0,458.3 362.5,458.0 364.0,457.7 365.5,457.3 367.0,456.8 368.5,456.3 370.0,455.7 371.5,455.0 373.0,454.2 374.5,453.3 376.0,452.3 377.5,451.1 379.0,449.8 380.5,448.4 382.0,446.7 383.5,444.9 385.0,442.9 386.5,440.6 388.0,438.1 389.5,435.4 391.0,432.3 392.5,429.0 394.0,425.4 395.5,421.4 397.0,417.1 398.5,412.4 400.0,407.3 401.5,401.8 403.0,395.9 404.5,389.7 406.0,382.9 407.5,375.8 409.0,368.2 410.5,360.2 412.0,351.7 413.5,342.8 415.0,333.6 416.5,323.9 418.0,313.8 419.5,303.4 421.0,292.7 422.5,281.7 424.0,270.4 425.5,259.0 427.0,247.3 428.5,235.6 430.0,223.8 431.5,212.0 433.0,200.3 434.5,188.6 436.0,177.2 437.5,166.0 439.0,155.2 440.5,144.7 442.0,134.7 443.5,125.2 445.0,116.3 446.5,108.1 448.0,100.5 449.5,93.7 451.0,87.7 452.5,82.5 454.0,78.3 455.5,74.9 457.0,72.5 458.5,71.0 460.0,70.6 461.5,71.0 463.0,72.5 464.5,74.9 466.0,78.3 467.5,82.5 469.0,87.7 470.5,93.7 472.0,100.5 473.5,108.1 475.0,116.3 476.5,125.2 478.0,134.7 479.5,144.7 481.0,155.2 482.5,166.0 484.0,177.2 485.5,188.6 487.0,200.3 488.5,212.0 490.0,223.8 491.5,235.6 493.0,247.3 494.5,259.0 496.0,270.4 497.5,281.7 499.0,292.7 500.5,303.4 502.0,313.8 503.5,323.9 505.0,333.6 506.5,342.8 508.0,351.7 509.5,360.2 511.0,368.2 512.5,375.8 514.0,382.9 515.5,389.7 517.0,395.9 518.5,401.8 520.0,407.3 521.5,412.4 523.0,417.1 524.5,421.4 526.0,425.4 527.5,429.0 529.0,432.3 530.5,435.4 532.0,438.1 533.5,440.6 535.0,442.9 536.5,444.9 538.0,446.7 539.5,448.4 541.0,449.8 542.5,451.1 544.0,452.3 545.5,453.3 547.0,454.2 548.5,455.0 550.0,455.7 551.5,456.3 553.0,456.8 554.5,457.3 556.0,457.7 557.5,458.0 559.0,458.3 560.5,458.6 562.0,458.8 563.5,459.0 565.0,459.1 566.5,459.3 568.0,459.4 569.5,459.5 571.0,459.6 572.5,459.7 574.0,459.7 575.5,459.8 577.0,459.8 578.5,459.8 580.0,459.9 581.5,459.9 583.0,459.9 584.5,459.9 586.0,459.9 587.5,460.0 589.0,460.0 590.5,460.0 592.0,460.0 593.5,460.0 595.0,460.0 596.5,460.0 598.0,460.0 599.5,460.0 601.0,460.0 602.5,460.0 604.0,460.0 605.5,460.0 607.0,460.0 608.5,460.0 610.0,460.0 611.5,460.0 613.0,460.0 614.5,460.0 616.0,460.0 617.5,460.0 619.0,460.0 620.5,460.0 622.0,460.0 623.5,460.0 625.0,460.0 626.5,460.0 628.0,460.0 629.5,460.0 631.0,460.0 632.5,460.0 634.0,460.0 635.5,460.0 637.0,460.0 638.5,460.0 640.0,460.0 641.5,460.0 643.0,460.0 644.5,460.0 646.0,460.0 647.5,460.0 649.0,460.0 650.5,460.0 652.0,460.0 653.5,460.0 655.0,460.0 656.5,460.0 658.0,460.0 659.5,460.0 661.0,460.0 662.5,460.0 664.0,460.0 665.5,460.0 667.0,460.0 668.5,460.0 670.0,460.0 671.5,460.0 673.0,460.0 674.5,460.0 676.0,460.0 677.5,460.0 679.0,460.0 680.5,460.0 682.0,460.0 683.5,460.0 685.0,460.0 686.5,460.0 688.0,460.0 689.5,460.0 691.0,460.0 692.5,460.0 694.0,460.0 695.5,460.0 697.0,460.0 698.5,460.0 700.0,460.0 701.5,460.0 703.0,460.0 704.5,460.0 706.0,460.0 707.5,460.0 709.0,460.0 710.5,460.0 712.0,460.0 713.5,460.0 715.0,460.0 716.5,460.0 718.0,460.0 719.5,460.0 721.0,460.0 722.5,460.0 724.0,460.0 725.5,460.0 727.0,460.0 728.5,460.0 730.0,460.0 731.5,460.0 733.0,460.0 734.5,460.0 736.0,460.0 737.5,460.0 739.0,460.0 740.5,460.0 742.0,460.0 743.5,460.0 745.0,460.0 746.5,460.0 748.0,460.0 749.5,460.0 751.0,460.0 752.5,460.0 754.0,460.0 755.5,460.0 757.0,460.0 758.5,460.0 760.0,460.0 761.5,460.0 763.0,460.0 764.5,460.0 766.0,460.0 767.5,460.0 769.0,460.0 770.5,460.0 772.0,460.0 773.5,460.0 775.0,460.0 776.5,460.0 778.0,460.0 779.5,460.0 781.0,460.0 782.5,460.0 784.0,460.0 785.5,460.0 787.0,460.0 788.5,460.0 790.0,460.0 791.5,460.0 793.0,460.0 794.5,460.0 796.0,460.0 797.5,460.0 799.0,460.0 800.5,460.0 802.0,460.0 803.5,460.0 805.0,460.0 806.5,460.0 808.0,460.0 809.5,460.0 811.0,460.0 812.5,460.0 814.0,460.0 815.5,460.0 817.0,460.0 818.5,460.0 820.0,460.0" fill="none" stroke="#7fb8ff" stroke-width="3.5" opacity="1" stroke-linejoin="round"/>
<line x1="460.0" y1="223.8" x2="490.0" y2="223.8" stroke="#4c5d80" stroke-width="2.5"/>
<text x="498.0" y="230.8" font-size="21" font-weight="400" fill="#141413" text-anchor="start"><tspan fill="#a67a63" font-style="italic" font-weight="700" font-family="'DejaVu Serif',serif">t</tspan> = 2: <tspan fill="#4c5d80" font-style="italic" font-weight="700" font-family="'DejaVu Serif',serif">σ</tspan> = 1</text>
<polyline points="100.0,460.0 101.5,460.0 103.0,460.0 104.5,460.0 106.0,460.0 107.5,460.0 109.0,460.0 110.5,460.0 112.0,460.0 113.5,460.0 115.0,460.0 116.5,460.0 118.0,460.0 119.5,460.0 121.0,460.0 122.5,460.0 124.0,460.0 125.5,460.0 127.0,460.0 128.5,460.0 130.0,460.0 131.5,460.0 133.0,460.0 134.5,460.0 136.0,460.0 137.5,460.0 139.0,460.0 140.5,460.0 142.0,460.0 143.5,460.0 145.0,460.0 146.5,460.0 148.0,460.0 149.5,460.0 151.0,460.0 152.5,460.0 154.0,460.0 155.5,460.0 157.0,460.0 158.5,460.0 160.0,460.0 161.5,460.0 163.0,460.0 164.5,460.0 166.0,460.0 167.5,460.0 169.0,460.0 170.5,460.0 172.0,460.0 173.5,460.0 175.0,460.0 176.5,460.0 178.0,460.0 179.5,460.0 181.0,460.0 182.5,460.0 184.0,460.0 185.5,460.0 187.0,460.0 188.5,460.0 190.0,460.0 191.5,460.0 193.0,460.0 194.5,460.0 196.0,460.0 197.5,460.0 199.0,460.0 200.5,460.0 202.0,460.0 203.5,460.0 205.0,460.0 206.5,460.0 208.0,460.0 209.5,460.0 211.0,460.0 212.5,460.0 214.0,460.0 215.5,460.0 217.0,459.9 218.5,459.9 220.0,459.9 221.5,459.9 223.0,459.9 224.5,459.9 226.0,459.9 227.5,459.9 229.0,459.9 230.5,459.9 232.0,459.9 233.5,459.8 235.0,459.8 236.5,459.8 238.0,459.8 239.5,459.8 241.0,459.8 242.5,459.7 244.0,459.7 245.5,459.7 247.0,459.6 248.5,459.6 250.0,459.6 251.5,459.5 253.0,459.5 254.5,459.4 256.0,459.4 257.5,459.3 259.0,459.3 260.5,459.2 262.0,459.2 263.5,459.1 265.0,459.0 266.5,458.9 268.0,458.8 269.5,458.7 271.0,458.6 272.5,458.5 274.0,458.4 275.5,458.3 277.0,458.1 278.5,458.0 280.0,457.8 281.5,457.7 283.0,457.5 284.5,457.3 286.0,457.1 287.5,456.9 289.0,456.6 290.5,456.4 292.0,456.1 293.5,455.9 295.0,455.6 296.5,455.2 298.0,454.9 299.5,454.6 301.0,454.2 302.5,453.8 304.0,453.4 305.5,452.9 307.0,452.5 308.5,452.0 310.0,451.4 311.5,450.9 313.0,450.3 314.5,449.7 316.0,449.1 317.5,448.4 319.0,447.7 320.5,447.0 322.0,446.2 323.5,445.4 325.0,444.5 326.5,443.6 328.0,442.7 329.5,441.7 331.0,440.7 332.5,439.6 334.0,438.5 335.5,437.4 337.0,436.2 338.5,434.9 340.0,433.6 341.5,432.3 343.0,430.9 344.5,429.5 346.0,428.0 347.5,426.4 349.0,424.8 350.5,423.2 352.0,421.5 353.5,419.7 355.0,417.9 356.5,416.0 358.0,414.1 359.5,412.1 361.0,410.1 362.5,408.0 364.0,405.9 365.5,403.7 367.0,401.4 368.5,399.1 370.0,396.8 371.5,394.4 373.0,391.9 374.5,389.5 376.0,386.9 377.5,384.3 379.0,381.7 380.5,379.1 382.0,376.4 383.5,373.6 385.0,370.8 386.5,368.0 388.0,365.2 389.5,362.4 391.0,359.5 392.5,356.6 394.0,353.7 395.5,350.7 397.0,347.8 398.5,344.8 400.0,341.9 401.5,338.9 403.0,336.0 404.5,333.1 406.0,330.1 407.5,327.2 409.0,324.3 410.5,321.4 412.0,318.6 413.5,315.8 415.0,313.0 416.5,310.3 418.0,307.6 419.5,304.9 421.0,302.4 422.5,299.8 424.0,297.4 425.5,294.9 427.0,292.6 428.5,290.3 430.0,288.2 431.5,286.1 433.0,284.0 434.5,282.1 436.0,280.2 437.5,278.5 439.0,276.8 440.5,275.3 442.0,273.8 443.5,272.5 445.0,271.3 446.5,270.1 448.0,269.1 449.5,268.2 451.0,267.5 452.5,266.8 454.0,266.2 455.5,265.8 457.0,265.5 458.5,265.3 460.0,265.3 461.5,265.3 463.0,265.5 464.5,265.8 466.0,266.2 467.5,266.8 469.0,267.5 470.5,268.2 472.0,269.1 473.5,270.1 475.0,271.3 476.5,272.5 478.0,273.8 479.5,275.3 481.0,276.8 482.5,278.5 484.0,280.2 485.5,282.1 487.0,284.0 488.5,286.1 490.0,288.2 491.5,290.3 493.0,292.6 494.5,294.9 496.0,297.4 497.5,299.8 499.0,302.4 500.5,304.9 502.0,307.6 503.5,310.3 505.0,313.0 506.5,315.8 508.0,318.6 509.5,321.4 511.0,324.3 512.5,327.2 514.0,330.1 515.5,333.1 517.0,336.0 518.5,338.9 520.0,341.9 521.5,344.8 523.0,347.8 524.5,350.7 526.0,353.7 527.5,356.6 529.0,359.5 530.5,362.4 532.0,365.2 533.5,368.0 535.0,370.8 536.5,373.6 538.0,376.4 539.5,379.1 541.0,381.7 542.5,384.3 544.0,386.9 545.5,389.5 547.0,391.9 548.5,394.4 550.0,396.8 551.5,399.1 553.0,401.4 554.5,403.7 556.0,405.9 557.5,408.0 559.0,410.1 560.5,412.1 562.0,414.1 563.5,416.0 565.0,417.9 566.5,419.7 568.0,421.5 569.5,423.2 571.0,424.8 572.5,426.4 574.0,428.0 575.5,429.5 577.0,430.9 578.5,432.3 580.0,433.6 581.5,434.9 583.0,436.2 584.5,437.4 586.0,438.5 587.5,439.6 589.0,440.7 590.5,441.7 592.0,442.7 593.5,443.6 595.0,444.5 596.5,445.4 598.0,446.2 599.5,447.0 601.0,447.7 602.5,448.4 604.0,449.1 605.5,449.7 607.0,450.3 608.5,450.9 610.0,451.4 611.5,452.0 613.0,452.5 614.5,452.9 616.0,453.4 617.5,453.8 619.0,454.2 620.5,454.6 622.0,454.9 623.5,455.2 625.0,455.6 626.5,455.9 628.0,456.1 629.5,456.4 631.0,456.6 632.5,456.9 634.0,457.1 635.5,457.3 637.0,457.5 638.5,457.7 640.0,457.8 641.5,458.0 643.0,458.1 644.5,458.3 646.0,458.4 647.5,458.5 649.0,458.6 650.5,458.7 652.0,458.8 653.5,458.9 655.0,459.0 656.5,459.1 658.0,459.2 659.5,459.2 661.0,459.3 662.5,459.3 664.0,459.4 665.5,459.4 667.0,459.5 668.5,459.5 670.0,459.6 671.5,459.6 673.0,459.6 674.5,459.7 676.0,459.7 677.5,459.7 679.0,459.8 680.5,459.8 682.0,459.8 683.5,459.8 685.0,459.8 686.5,459.8 688.0,459.9 689.5,459.9 691.0,459.9 692.5,459.9 694.0,459.9 695.5,459.9 697.0,459.9 698.5,459.9 700.0,459.9 701.5,459.9 703.0,459.9 704.5,460.0 706.0,460.0 707.5,460.0 709.0,460.0 710.5,460.0 712.0,460.0 713.5,460.0 715.0,460.0 716.5,460.0 718.0,460.0 719.5,460.0 721.0,460.0 722.5,460.0 724.0,460.0 725.5,460.0 727.0,460.0 728.5,460.0 730.0,460.0 731.5,460.0 733.0,460.0 734.5,460.0 736.0,460.0 737.5,460.0 739.0,460.0 740.5,460.0 742.0,460.0 743.5,460.0 745.0,460.0 746.5,460.0 748.0,460.0 749.5,460.0 751.0,460.0 752.5,460.0 754.0,460.0 755.5,460.0 757.0,460.0 758.5,460.0 760.0,460.0 761.5,460.0 763.0,460.0 764.5,460.0 766.0,460.0 767.5,460.0 769.0,460.0 770.5,460.0 772.0,460.0 773.5,460.0 775.0,460.0 776.5,460.0 778.0,460.0 779.5,460.0 781.0,460.0 782.5,460.0 784.0,460.0 785.5,460.0 787.0,460.0 788.5,460.0 790.0,460.0 791.5,460.0 793.0,460.0 794.5,460.0 796.0,460.0 797.5,460.0 799.0,460.0 800.5,460.0 802.0,460.0 803.5,460.0 805.0,460.0 806.5,460.0 808.0,460.0 809.5,460.0 811.0,460.0 812.5,460.0 814.0,460.0 815.5,460.0 817.0,460.0 818.5,460.0 820.0,460.0" fill="none" stroke="#1e90ff" stroke-width="3.5" opacity="1" stroke-linejoin="round"/>
<line x1="460.0" y1="341.9" x2="520.0" y2="341.9" stroke="#4c5d80" stroke-width="2.5"/>
<text x="528.0" y="348.9" font-size="21" font-weight="400" fill="#141413" text-anchor="start"><tspan fill="#a67a63" font-style="italic" font-weight="700" font-family="'DejaVu Serif',serif">t</tspan> = 8: <tspan fill="#4c5d80" font-style="italic" font-weight="700" font-family="'DejaVu Serif',serif">σ</tspan> = 2</text>
<polyline points="100.0,458.9 101.5,458.9 103.0,458.8 104.5,458.8 106.0,458.7 107.5,458.7 109.0,458.6 110.5,458.6 112.0,458.5 113.5,458.5 115.0,458.4 116.5,458.4 118.0,458.3 119.5,458.3 121.0,458.2 122.5,458.1 124.0,458.1 125.5,458.0 127.0,457.9 128.5,457.9 130.0,457.8 131.5,457.7 133.0,457.6 134.5,457.5 136.0,457.5 137.5,457.4 139.0,457.3 140.5,457.2 142.0,457.1 143.5,457.0 145.0,456.9 146.5,456.8 148.0,456.7 149.5,456.6 151.0,456.5 152.5,456.3 154.0,456.2 155.5,456.1 157.0,456.0 158.5,455.9 160.0,455.7 161.5,455.6 163.0,455.4 164.5,455.3 166.0,455.2 167.5,455.0 169.0,454.9 170.5,454.7 172.0,454.5 173.5,454.4 175.0,454.2 176.5,454.0 178.0,453.8 179.5,453.7 181.0,453.5 182.5,453.3 184.0,453.1 185.5,452.9 187.0,452.7 188.5,452.5 190.0,452.3 191.5,452.0 193.0,451.8 194.5,451.6 196.0,451.3 197.5,451.1 199.0,450.9 200.5,450.6 202.0,450.3 203.5,450.1 205.0,449.8 206.5,449.5 208.0,449.3 209.5,449.0 211.0,448.7 212.5,448.4 214.0,448.1 215.5,447.8 217.0,447.5 218.5,447.1 220.0,446.8 221.5,446.5 223.0,446.2 224.5,445.8 226.0,445.5 227.5,445.1 229.0,444.7 230.5,444.4 232.0,444.0 233.5,443.6 235.0,443.2 236.5,442.8 238.0,442.4 239.5,442.0 241.0,441.6 242.5,441.2 244.0,440.7 245.5,440.3 247.0,439.9 248.5,439.4 250.0,438.9 251.5,438.5 253.0,438.0 254.5,437.5 256.0,437.0 257.5,436.6 259.0,436.1 260.5,435.6 262.0,435.0 263.5,434.5 265.0,434.0 266.5,433.5 268.0,432.9 269.5,432.4 271.0,431.8 272.5,431.3 274.0,430.7 275.5,430.1 277.0,429.6 278.5,429.0 280.0,428.4 281.5,427.8 283.0,427.2 284.5,426.6 286.0,426.0 287.5,425.4 289.0,424.7 290.5,424.1 292.0,423.5 293.5,422.8 295.0,422.2 296.5,421.5 298.0,420.9 299.5,420.2 301.0,419.5 302.5,418.9 304.0,418.2 305.5,417.5 307.0,416.8 308.5,416.1 310.0,415.4 311.5,414.7 313.0,414.0 314.5,413.3 316.0,412.6 317.5,411.9 319.0,411.2 320.5,410.5 322.0,409.7 323.5,409.0 325.0,408.3 326.5,407.6 328.0,406.8 329.5,406.1 331.0,405.4 332.5,404.6 334.0,403.9 335.5,403.2 337.0,402.4 338.5,401.7 340.0,400.9 341.5,400.2 343.0,399.5 344.5,398.7 346.0,398.0 347.5,397.3 349.0,396.5 350.5,395.8 352.0,395.1 353.5,394.3 355.0,393.6 356.5,392.9 358.0,392.2 359.5,391.4 361.0,390.7 362.5,390.0 364.0,389.3 365.5,388.6 367.0,387.9 368.5,387.2 370.0,386.5 371.5,385.8 373.0,385.1 374.5,384.5 376.0,383.8 377.5,383.1 379.0,382.5 380.5,381.8 382.0,381.2 383.5,380.5 385.0,379.9 386.5,379.3 388.0,378.7 389.5,378.1 391.0,377.5 392.5,376.9 394.0,376.3 395.5,375.7 397.0,375.2 398.5,374.6 400.0,374.1 401.5,373.5 403.0,373.0 404.5,372.5 406.0,372.0 407.5,371.5 409.0,371.0 410.5,370.6 412.0,370.1 413.5,369.7 415.0,369.2 416.5,368.8 418.0,368.4 419.5,368.0 421.0,367.6 422.5,367.3 424.0,366.9 425.5,366.6 427.0,366.3 428.5,365.9 430.0,365.6 431.5,365.3 433.0,365.1 434.5,364.8 436.0,364.6 437.5,364.3 439.0,364.1 440.5,363.9 442.0,363.7 443.5,363.6 445.0,363.4 446.5,363.3 448.0,363.1 449.5,363.0 451.0,362.9 452.5,362.8 454.0,362.8 455.5,362.7 457.0,362.7 458.5,362.6 460.0,362.6 461.5,362.6 463.0,362.7 464.5,362.7 466.0,362.8 467.5,362.8 469.0,362.9 470.5,363.0 472.0,363.1 473.5,363.3 475.0,363.4 476.5,363.6 478.0,363.7 479.5,363.9 481.0,364.1 482.5,364.3 484.0,364.6 485.5,364.8 487.0,365.1 488.5,365.3 490.0,365.6 491.5,365.9 493.0,366.3 494.5,366.6 496.0,366.9 497.5,367.3 499.0,367.6 500.5,368.0 502.0,368.4 503.5,368.8 505.0,369.2 506.5,369.7 508.0,370.1 509.5,370.6 511.0,371.0 512.5,371.5 514.0,372.0 515.5,372.5 517.0,373.0 518.5,373.5 520.0,374.1 521.5,374.6 523.0,375.2 524.5,375.7 526.0,376.3 527.5,376.9 529.0,377.5 530.5,378.1 532.0,378.7 533.5,379.3 535.0,379.9 536.5,380.5 538.0,381.2 539.5,381.8 541.0,382.5 542.5,383.1 544.0,383.8 545.5,384.5 547.0,385.1 548.5,385.8 550.0,386.5 551.5,387.2 553.0,387.9 554.5,388.6 556.0,389.3 557.5,390.0 559.0,390.7 560.5,391.4 562.0,392.2 563.5,392.9 565.0,393.6 566.5,394.3 568.0,395.1 569.5,395.8 571.0,396.5 572.5,397.3 574.0,398.0 575.5,398.7 577.0,399.5 578.5,400.2 580.0,400.9 581.5,401.7 583.0,402.4 584.5,403.2 586.0,403.9 587.5,404.6 589.0,405.4 590.5,406.1 592.0,406.8 593.5,407.6 595.0,408.3 596.5,409.0 598.0,409.7 599.5,410.5 601.0,411.2 602.5,411.9 604.0,412.6 605.5,413.3 607.0,414.0 608.5,414.7 610.0,415.4 611.5,416.1 613.0,416.8 614.5,417.5 616.0,418.2 617.5,418.9 619.0,419.5 620.5,420.2 622.0,420.9 623.5,421.5 625.0,422.2 626.5,422.8 628.0,423.5 629.5,424.1 631.0,424.7 632.5,425.4 634.0,426.0 635.5,426.6 637.0,427.2 638.5,427.8 640.0,428.4 641.5,429.0 643.0,429.6 644.5,430.1 646.0,430.7 647.5,431.3 649.0,431.8 650.5,432.4 652.0,432.9 653.5,433.5 655.0,434.0 656.5,434.5 658.0,435.0 659.5,435.6 661.0,436.1 662.5,436.6 664.0,437.0 665.5,437.5 667.0,438.0 668.5,438.5 670.0,438.9 671.5,439.4 673.0,439.9 674.5,440.3 676.0,440.7 677.5,441.2 679.0,441.6 680.5,442.0 682.0,442.4 683.5,442.8 685.0,443.2 686.5,443.6 688.0,444.0 689.5,444.4 691.0,444.7 692.5,445.1 694.0,445.5 695.5,445.8 697.0,446.2 698.5,446.5 700.0,446.8 701.5,447.1 703.0,447.5 704.5,447.8 706.0,448.1 707.5,448.4 709.0,448.7 710.5,449.0 712.0,449.3 713.5,449.5 715.0,449.8 716.5,450.1 718.0,450.3 719.5,450.6 721.0,450.9 722.5,451.1 724.0,451.3 725.5,451.6 727.0,451.8 728.5,452.0 730.0,452.3 731.5,452.5 733.0,452.7 734.5,452.9 736.0,453.1 737.5,453.3 739.0,453.5 740.5,453.7 742.0,453.8 743.5,454.0 745.0,454.2 746.5,454.4 748.0,454.5 749.5,454.7 751.0,454.9 752.5,455.0 754.0,455.2 755.5,455.3 757.0,455.4 758.5,455.6 760.0,455.7 761.5,455.9 763.0,456.0 764.5,456.1 766.0,456.2 767.5,456.3 769.0,456.5 770.5,456.6 772.0,456.7 773.5,456.8 775.0,456.9 776.5,457.0 778.0,457.1 779.5,457.2 781.0,457.3 782.5,457.4 784.0,457.5 785.5,457.5 787.0,457.6 788.5,457.7 790.0,457.8 791.5,457.9 793.0,457.9 794.5,458.0 796.0,458.1 797.5,458.1 799.0,458.2 800.5,458.3 802.0,458.3 803.5,458.4 805.0,458.4 806.5,458.5 808.0,458.5 809.5,458.6 811.0,458.6 812.5,458.7 814.0,458.7 815.5,458.8 817.0,458.8 818.5,458.9 820.0,458.9" fill="none" stroke="#0b5cad" stroke-width="3.5" opacity="1" stroke-linejoin="round"/>
<line x1="460.0" y1="400.9" x2="580.0" y2="400.9" stroke="#4c5d80" stroke-width="2.5"/>
<text x="588.0" y="407.9" font-size="21" font-weight="400" fill="#141413" text-anchor="start"><tspan fill="#a67a63" font-style="italic" font-weight="700" font-family="'DejaVu Serif',serif">t</tspan> = 32: <tspan fill="#4c5d80" font-style="italic" font-weight="700" font-family="'DejaVu Serif',serif">σ</tspan> = 4</text>
<text x="460.0" y="520.0" font-size="22" font-weight="400" fill="#141413" text-anchor="middle">위치 <tspan fill="#1b9e77" font-style="italic" font-weight="700" font-family="'DejaVu Serif',serif">x</tspan></text>
<text x="100.0" y="30.0" font-size="21" font-weight="400" fill="#141413" text-anchor="start">원점에 둔 1이 퍼진 모양 <tspan fill="#1e90ff" font-style="italic" font-weight="700" font-family="'DejaVu Serif',serif">u</tspan>(<tspan fill="#1b9e77" font-style="italic" font-weight="700" font-family="'DejaVu Serif',serif">x</tspan>, <tspan fill="#a67a63" font-style="italic" font-weight="700" font-family="'DejaVu Serif',serif">t</tspan>)</text>
</svg>