<svg xmlns="http://www.w3.org/2000/svg" viewBox="0 -40 400 460" width="400" height="460">
<title>S02 이서연 — 호기심</title>
<path d="M 116 178 C 108 96 150 60 200 60 C 250 60 292 96 284 178 C 286 205 282 222 274 232 L 126 232 C 118 222 114 205 116 178 Z" fill="#2d2220" stroke="#2b2b2b" stroke-width="5"/>
<path d="M 50 430 C 52 350 110 312 175 302 L 225 302 C 290 312 348 350 350 430 Z" fill="#eadfc8" stroke="#2b2b2b" stroke-width="5"/>
<path d="M 50 430 C 52 350 110 312 166 304 L 180 336 L 174 430 Z" fill="#4f8a5f" stroke="#2b2b2b" stroke-width="5" stroke-linejoin="round"/>
<path d="M 350 430 C 348 350 290 312 234 304 L 220 336 L 226 430 Z" fill="#4f8a5f" stroke="#2b2b2b" stroke-width="5" stroke-linejoin="round"/>
<circle cx="185" cy="362" r="4.5" fill="#3c6e4b" stroke="#2b2b2b" stroke-width="2"/>
<circle cx="185" cy="398" r="4.5" fill="#3c6e4b" stroke="#2b2b2b" stroke-width="2"/>
<path d="M 178 228 L 178 312 Q 200 322 222 312 L 222 228 Z" fill="#f7d5ba" stroke="#2b2b2b" stroke-width="5"/>
<path d="M 179 262 Q 200 276 221 262" fill="none" stroke="#e9b996" stroke-width="6"/>
<path d="M 178 298 L 164 324 Q 180 330 196 318 Z" fill="#eadfc8" stroke="#2b2b2b" stroke-width="4" stroke-linejoin="round"/>
<path d="M 222 298 L 236 324 Q 220 330 204 318 Z" fill="#eadfc8" stroke="#2b2b2b" stroke-width="4" stroke-linejoin="round"/>
<ellipse cx="125" cy="176" rx="13" ry="19" fill="#f7d5ba" stroke="#2b2b2b" stroke-width="5"/>
<path d="M 129 168 q -5 8 0 16" fill="none" stroke="#e9b996" stroke-width="3"/>
<ellipse cx="275" cy="176" rx="13" ry="19" fill="#f7d5ba" stroke="#2b2b2b" stroke-width="5"/>
<path d="M 271 168 q 5 8 0 16" fill="none" stroke="#e9b996" stroke-width="3"/>
<path d="M 125 160 C 125 100 160 78 200 78 C 240 78 275 100 275 160 C 275 215 245 252 200 252 C 155 252 125 215 125 160 Z" fill="#f7d5ba" stroke="#2b2b2b" stroke-width="5"/>
<path d="M 201 186 Q 196 197 203 199" fill="none" stroke="#e9b996" stroke-width="4" stroke-linecap="round"/>
<ellipse cx="174" cy="168" rx="6.5" ry="9" fill="#2b2b2b"/>
<circle cx="176.2" cy="165" r="2.3" fill="#fff"/>
<path d="M 162 165 L 157 161" stroke="#2b2b2b" stroke-width="2.5" stroke-linecap="round"/>
<ellipse cx="234" cy="168" rx="6.5" ry="9" fill="#2b2b2b"/>
<circle cx="236.2" cy="165" r="2.3" fill="#fff"/>
<path d="M 238 165 L 243 161" stroke="#2b2b2b" stroke-width="2.5" stroke-linecap="round"/>
<rect x="145" y="157" width="50" height="31" rx="5" fill="#ffffff" fill-opacity=".15" stroke="#98a1ab" stroke-width="3.5"/>
<rect x="205" y="157" width="50" height="31" rx="5" fill="#ffffff" fill-opacity=".15" stroke="#98a1ab" stroke-width="3.5"/>
<path d="M 195 168 L 205 168" stroke="#98a1ab" stroke-width="3.5"/>
<path d="M 145 165 L 128 162 M 255 165 L 272 162" stroke="#98a1ab" stroke-width="3.5" stroke-linecap="round"/>
<path d="M 152 137 Q 170.0 131.5 188 134" fill="none" stroke="#2d2220" stroke-width="5" stroke-linecap="round"/>
<path d="M 248 137 Q 230.0 131.5 212 134" fill="none" stroke="#2d2220" stroke-width="5" stroke-linecap="round"/>
<ellipse cx="200" cy="220" rx="4.5" ry="5.9" fill="#8a3b3b" stroke="#2b2b2b" stroke-width="4"/>
<path d="M 122 176 C 114 104 152 70 200 70 C 250 70 286 104 278 176 C 272 142 262 118 246 104 C 222 128 176 134 142 128 C 132 142 125 158 122 176 Z" fill="#2d2220" stroke="#2b2b2b" stroke-width="5" stroke-linejoin="round"/>
<path d="M 246 104 C 236 92 226 84 214 80" fill="none" stroke="#4d3c38" stroke-width="3"/>
<path d="M 134 226 C 112 256 104 300 114 348 C 120 362 140 360 144 344 C 140 302 148 268 158 242 Z" fill="#2d2220" stroke="#2b2b2b" stroke-width="5" stroke-linejoin="round"/>
<ellipse cx="144" cy="238" rx="12" ry="8" transform="rotate(-30 144 238)" fill="#3c6e4b" stroke="#2b2b2b" stroke-width="3"/>
<path d="M 294 440 L 256 282" fill="none" stroke="#2b2b2b" stroke-width="50" stroke-linecap="round" stroke-linejoin="round"/>
<path d="M 294 440 L 256 282" fill="none" stroke="#4f8a5f" stroke-width="40" stroke-linecap="round" stroke-linejoin="round"/>
<path d="M 259.3 295.6 L 256.5 283.9" stroke="#2b2b2b" stroke-width="48" stroke-linecap="butt"/>
<path d="M 258.8 293.7 L 256.9 285.9" stroke="#3c6e4b" stroke-width="38" stroke-linecap="butt"/>
<g transform="translate(248 262) rotate(-100)">
<rect x="-2" y="-17" width="36" height="34" rx="13" fill="#f7d5ba" stroke="#2b2b2b" stroke-width="4.5" stroke-linejoin="round"/>
<path d="M 22 -8 L 33 -8 M 22 2 L 33 2" stroke="#2b2b2b" stroke-width="3" stroke-linecap="round"/>
</g>
<path d="M 318 62 Q 320.52 73.48 332 76 Q 320.52 78.52 318 90 Q 315.48 78.52 304 76 Q 315.48 73.48 318 62 Z" fill="#ffcf33" stroke="#2b2b2b" stroke-width="3" stroke-linejoin="round"/>
<path d="M 96 94 Q 97.8 102.2 106 104 Q 97.8 105.8 96 114 Q 94.2 105.8 86 104 Q 94.2 102.2 96 94 Z" fill="#ffcf33" stroke="#2b2b2b" stroke-width="3" stroke-linejoin="round"/>
</svg>
