<svg xmlns="http://www.w3.org/2000/svg" viewBox="0 -40 400 460" width="400" height="460">
<title>T12 선생님 — 장난</title>
<path d="M 50 430 C 52 350 110 312 175 302 L 225 302 C 290 312 348 350 350 430 Z" fill="#fafaf7" stroke="#2b2b2b" stroke-width="5"/>
<path d="M 57 430 C 60 356 112 320 163 310 L 200 384 L 237 310 C 288 320 340 356 343 430 Z" fill="#243b61" stroke="#2b2b2b" stroke-width="5" stroke-linejoin="round"/>
<path d="M 170 314 L 200 376 L 230 314" fill="none" stroke="#35527f" stroke-width="6"/>
<path d="M 110 360 L 110 425" stroke="#35527f" stroke-width="3" opacity=".7"/>
<path d="M 135 345 L 135 425" stroke="#35527f" stroke-width="3" opacity=".7"/>
<path d="M 265 345 L 265 425" stroke="#35527f" stroke-width="3" opacity=".7"/>
<path d="M 290 360 L 290 425" stroke="#35527f" stroke-width="3" opacity=".7"/>
<path d="M 178 228 L 178 312 Q 200 322 222 312 L 222 228 Z" fill="#f7d5ba" stroke="#2b2b2b" stroke-width="5"/>
<path d="M 179 262 Q 200 276 221 262" fill="none" stroke="#e9b996" stroke-width="6"/>
<path d="M 178 294 L 160 326 L 197 320 Z" fill="#fafaf7" stroke="#2b2b2b" stroke-width="4" stroke-linejoin="round"/>
<path d="M 222 294 L 240 326 L 203 320 Z" fill="#fafaf7" stroke="#2b2b2b" stroke-width="4" stroke-linejoin="round"/>
<ellipse cx="125" cy="176" rx="13" ry="19" fill="#f7d5ba" stroke="#2b2b2b" stroke-width="5"/>
<path d="M 129 168 q -5 8 0 16" fill="none" stroke="#e9b996" stroke-width="3"/>
<ellipse cx="275" cy="176" rx="13" ry="19" fill="#f7d5ba" stroke="#2b2b2b" stroke-width="5"/>
<path d="M 271 168 q 5 8 0 16" fill="none" stroke="#e9b996" stroke-width="3"/>
<path d="M 125 160 C 125 100 160 78 200 78 C 240 78 275 100 275 160 C 275 215 245 252 200 252 C 155 252 125 215 125 160 Z" fill="#f7d5ba" stroke="#2b2b2b" stroke-width="5"/>
<path d="M 201 186 Q 196 197 203 199" fill="none" stroke="#e9b996" stroke-width="4" stroke-linecap="round"/>
<path d="M 176 204 Q 172 214 176 222" fill="none" stroke="#e9b996" stroke-width="3" stroke-linecap="round"/>
<path d="M 224 204 Q 228 214 224 222" fill="none" stroke="#e9b996" stroke-width="3" stroke-linecap="round"/>
<path d="M 159.7 171 A 6.3 6.3 0 0 0 172.3 171 Z" fill="#2b2b2b"/>
<path d="M 157 169 Q 170 166 183 171" fill="none" stroke="#2b2b2b" stroke-width="5" stroke-linecap="round"/>
<path d="M 160 181 Q 170 183 179 180" fill="none" stroke="#2b2b2b" stroke-width="2.2" opacity=".5"/>
<path d="M 219.7 171 A 6.3 6.3 0 0 0 232.3 171 Z" fill="#2b2b2b"/>
<path d="M 217 169 Q 230 166 243 171" fill="none" stroke="#2b2b2b" stroke-width="5" stroke-linecap="round"/>
<path d="M 220 181 Q 230 183 239 180" fill="none" stroke="#2b2b2b" stroke-width="2.2" opacity=".5"/>
<circle cx="170" cy="172" r="23" fill="#ffffff" fill-opacity=".18" stroke="#7b4a26" stroke-width="6"/>
<circle cx="230" cy="172" r="23" fill="#ffffff" fill-opacity=".18" stroke="#7b4a26" stroke-width="6"/>
<path d="M 193 168 Q 200 162 207 168" fill="none" stroke="#7b4a26" stroke-width="5"/>
<path d="M 147 168 L 128 164 M 253 168 L 272 164" stroke="#7b4a26" stroke-width="5" stroke-linecap="round"/>
<path d="M 152 138 Q 170.0 136.0 188 142" fill="none" stroke="#26262b" stroke-width="7.5" stroke-linecap="round"/>
<path d="M 248 130 Q 230.0 127.0 212 132" fill="none" stroke="#26262b" stroke-width="7.5" stroke-linecap="round"/>
<path d="M 186.7 221 Q 202 226 214.25 212" fill="none" stroke="#2b2b2b" stroke-width="4.5" stroke-linecap="round"/>
<path d="M 214.25 212 L 217.1 209" stroke="#2b2b2b" stroke-width="3" stroke-linecap="round"/>
<path d="M 123 172 C 116 108 150 70 200 68 C 252 68 286 106 277 172 C 272 146 266 126 256 116 C 228 112 188 110 162 100 C 146 116 130 140 123 172 Z" fill="#26262b" stroke="#2b2b2b" stroke-width="5" stroke-linejoin="round"/>
<path d="M 162 100 C 170 88 180 80 188 76" fill="none" stroke="#4a4a52" stroke-width="3"/>
<path d="M 125 168 C 123 150 126 134 131 124 L 136 128 C 132 140 130 154 131 168 Z" fill="#a6a6ad"/>
<path d="M 275 168 C 277 150 274 134 269 124 L 264 128 C 268 140 270 154 269 168 Z" fill="#a6a6ad"/>
<path d="M 276 440 L 262 272" fill="none" stroke="#2b2b2b" stroke-width="50" stroke-linecap="round" stroke-linejoin="round"/>
<path d="M 271.1 381.2 L 262 272" fill="none" stroke="#f7d5ba" stroke-width="34" stroke-linecap="round" stroke-linejoin="round"/>
<path d="M 276 440 L 271.1 381.2" fill="none" stroke="#fafaf7" stroke-width="40" stroke-linecap="round" stroke-linejoin="round"/>
<path d="M 271.3 384.2 L 269.9 366.3" stroke="#2b2b2b" stroke-width="52" stroke-linecap="butt"/>
<path d="M 271.2 382.2 L 270 368.2" stroke="#fafaf7" stroke-width="43" stroke-linecap="butt"/>
<path d="M 270.7 376.2 L 270.5 374.2" stroke="#d9d9d4" stroke-width="43" stroke-linecap="butt"/>
<g transform="translate(254 246) rotate(-120)">
<path d="M 18 0 L 47.2 -19.7" stroke="#2b2b2b" stroke-width="15" stroke-linecap="round"/>
<path d="M 18 0 L 47.2 -19.7" stroke="#f7d5ba" stroke-width="6.5" stroke-linecap="round"/>
<path d="M 18 0 L 53.2 -7.2" stroke="#2b2b2b" stroke-width="15" stroke-linecap="round"/>
<path d="M 18 0 L 53.2 -7.2" stroke="#f7d5ba" stroke-width="6.5" stroke-linecap="round"/>
<path d="M 18 0 L 53.3 6.7" stroke="#2b2b2b" stroke-width="15" stroke-linecap="round"/>
<path d="M 18 0 L 53.3 6.7" stroke="#f7d5ba" stroke-width="6.5" stroke-linecap="round"/>
<path d="M 18 0 L 47.9 18.8" stroke="#2b2b2b" stroke-width="15" stroke-linecap="round"/>
<path d="M 18 0 L 47.9 18.8" stroke="#f7d5ba" stroke-width="6.5" stroke-linecap="round"/>
<ellipse cx="14" cy="0" rx="18" ry="20" fill="#f7d5ba" stroke="#2b2b2b" stroke-width="4.5" stroke-linejoin="round"/>
</g>
<text x="322" y="118" font-family="'Noto Sans KR','Noto Sans CJK KR','Apple SD Gothic Neo',sans-serif" font-size="40" font-weight="900" fill="#c2413a" stroke="#fff" stroke-width="7" paint-order="stroke" stroke-linejoin="round" text-anchor="middle" transform="rotate(10 322 118)">씩</text>
<path d="M 248 188 Q 249.44 194.56 256 196 Q 249.44 197.44 248 204 Q 246.56 197.44 240 196 Q 246.56 194.56 248 188 Z" fill="#ffffff" stroke="#2b2b2b" stroke-width="3" stroke-linejoin="round"/>
</svg>
